<svg xmlns="http://www.w3.org/2000/svg" version="1.1" width="112.7mm" height="112.7mm" viewBox=" 0 0 1107.993037 753.6620369999999">
<!-- Front-->
<g transform="translate(22.5000185, 22.5000185) ">
<polygon style="stroke:#000000; fill:none; stroke-width:0.90000074" points="0, 0 16.8307225, 0 16.8307225, 10.62993 33.661445, 10.62993 33.661445, 0 44.291375, 0 44.291375, 10.62993 54.921305000000004, 10.62993 54.921305000000004, 0 65.55123499999999, 0 65.55123499999999, 10.62993 76.181165, 10.62993 76.181165, 0 86.811095, 0 86.811095, 10.62993 97.441025, 10.62993 97.441025, 0 108.070955, 0 108.070955, 10.62993 118.700885, 10.62993 118.700885, 0 129.330815, 0 129.330815, 10.62993 139.960745, 10.62993 139.960745, 0 150.590675, 0 150.590675, 10.62993 161.22060499999998, 10.62993 161.22060499999998, 0 171.85053499999998, 0 171.85053499999998, 10.62993 182.48046499999998, 10.62993 182.48046499999998, 0 193.11039499999998, 0 193.11039499999998, 10.62993 203.74032499999998, 10.62993 203.74032499999998, 0 214.370255, 0 214.370255, 10.62993 225.000185, 10.62993 225.000185, 0 235.630115, 0 235.630115, 10.62993 246.260045, 10.62993 246.260045, 0 256.889975, 0 256.889975, 10.62993 267.519905, 10.62993 267.519905, 0 278.149835, 0 278.149835, 10.62993 288.779765, 10.62993 288.779765, 0 299.409695, 0 299.409695, 10.62993 310.039625, 10.62993 310.039625, 0 320.669555, 0 320.669555, 10.62993 337.5002775, 10.62993 337.5002775, 0 354.331, 0 354.331, 16.8307225 343.70107, 16.8307225 343.70107, 33.661445 354.331, 33.661445 354.331, 44.291375 343.70107, 44.291375 343.70107, 54.921305000000004 354.331, 54.921305000000004 354.331, 65.55123499999999 343.70107, 65.55123499999999 343.70107, 76.181165 354.331, 76.181165 354.331, 86.811095 343.70107, 86.811095 343.70107, 97.441025 354.331, 97.441025 354.331, 108.070955 343.70107, 108.070955 343.70107, 118.700885 354.331, 118.700885 354.331, 129.330815 343.70107, 129.330815 343.70107, 139.960745 354.331, 139.960745 354.331, 150.590675 343.70107, 150.590675 343.70107, 161.22060499999998 354.331, 161.22060499999998 354.331, 171.85053499999998 343.70107, 171.85053499999998 343.70107, 182.48046499999998 354.331, 182.48046499999998 354.331, 193.11039499999998 343.70107, 193.11039499999998 343.70107, 203.74032499999998 354.331, 203.74032499999998 354.331, 214.370255 343.70107, 214.370255 343.70107, 225.000185 354.331, 225.000185 354.331, 235.630115 343.70107, 235.630115 343.70107, 246.260045 354.331, 246.260045 354.331, 256.889975 343.70107, 256.889975 343.70107, 267.519905 354.331, 267.519905 354.331, 278.149835 343.70107, 278.149835 343.70107, 288.779765 354.331, 288.779765 354.331, 299.409695 343.70107, 299.409695 343.70107, 310.039625 354.331, 310.039625 354.331, 320.669555 343.70107, 320.669555 343.70107, 337.5002775 354.331, 337.5002775 354.331, 354.331 337.5002775, 354.331 337.5002775, 343.70107 320.669555, 343.70107 320.669555, 354.331 310.039625, 354.331 310.039625, 343.70107 299.409695, 343.70107 299.409695, 354.331 288.779765, 354.331 288.779765, 343.70107 278.149835, 343.70107 278.149835, 354.331 267.519905, 354.331 267.519905, 343.70107 256.889975, 343.70107 256.889975, 354.331 246.260045, 354.331 246.260045, 343.70107 235.630115, 343.70107 235.630115, 354.331 225.000185, 354.331 225.000185, 343.70107 214.370255, 343.70107 214.370255, 354.331 203.74032499999998, 354.331 203.74032499999998, 343.70107 193.11039499999998, 343.70107 193.11039499999998, 354.331 182.48046499999998, 354.331 182.48046499999998, 343.70107 171.85053499999998, 343.70107 171.85053499999998, 354.331 161.22060499999998, 354.331 161.22060499999998, 343.70107 150.590675, 343.70107 150.590675, 354.331 139.960745, 354.331 139.960745, 343.70107 129.330815, 343.70107 129.330815, 354.331 118.700885, 354.331 118.700885, 343.70107 108.070955, 343.70107 108.070955, 354.331 97.441025, 354.331 97.441025, 343.70107 86.811095, 343.70107 86.811095, 354.331 76.181165, 354.331 76.181165, 343.70107 65.55123499999999, 343.70107 65.55123499999999, 354.331 54.921305000000004, 354.331 54.921305000000004, 343.70107 44.291375, 343.70107 44.291375, 354.331 33.661445, 354.331 33.661445, 343.70107 16.8307225, 343.70107 16.8307225, 354.331 0, 354.331 0, 337.5002775 10.62993, 337.5002775 10.62993, 320.669555 0, 320.669555 0, 310.039625 10.62993, 310.039625 10.62993, 299.409695 0, 299.409695 0, 288.779765 10.62993, 288.779765 10.62993, 278.149835 0, 278.149835 0, 267.519905 10.62993, 267.519905 10.62993, 256.889975 0, 256.889975 0, 246.260045 10.62993, 246.260045 10.62993, 235.630115 0, 235.630115 0, 225.000185 10.62993, 225.000185 10.62993, 214.370255 0, 214.370255 0, 203.74032499999998 10.62993, 203.74032499999998 10.62993, 193.11039499999998 0, 193.11039499999998 0, 182.48046499999998 10.62993, 182.48046499999998 10.62993, 171.85053499999998 0, 171.85053499999998 0, 161.22060499999998 10.62993, 161.22060499999998 10.62993, 150.590675 0, 150.590675 0, 139.960745 10.62993, 139.960745 10.62993, 129.330815 0, 129.330815 0, 118.700885 10.62993, 118.700885 10.62993, 108.070955 0, 108.070955 0, 97.441025 10.62993, 97.441025 10.62993, 86.811095 0, 86.811095 0, 76.181165 10.62993, 76.181165 10.62993, 65.55123499999999 0, 65.55123499999999 0, 54.921305000000004 10.62993, 54.921305000000004 10.62993, 44.291375 0, 44.291375 0, 33.661445 10.62993, 33.661445 10.62993, 16.8307225 0, 16.8307225 "/>
</g>
<!-- Back-->
<g transform="translate(376.83101849999997, 22.5000185) ">
<polygon style="stroke:#000000; fill:none; stroke-width:0.90000074" points="0, 0 16.8307225, 0 16.8307225, 10.62993 33.661445, 10.62993 33.661445, 0 44.291375, 0 44.291375, 10.62993 54.921305000000004, 10.62993 54.921305000000004, 0 65.55123499999999, 0 65.55123499999999, 10.62993 76.181165, 10.62993 76.181165, 0 86.811095, 0 86.811095, 10.62993 97.441025, 10.62993 97.441025, 0 108.070955, 0 108.070955, 10.62993 118.700885, 10.62993 118.700885, 0 129.330815, 0 129.330815, 10.62993 139.960745, 10.62993 139.960745, 0 150.590675, 0 150.590675, 10.62993 161.22060499999998, 10.62993 161.22060499999998, 0 171.85053499999998, 0 171.85053499999998, 10.62993 182.48046499999998, 10.62993 182.48046499999998, 0 193.11039499999998, 0 193.11039499999998, 10.62993 203.74032499999998, 10.62993 203.74032499999998, 0 214.370255, 0 214.370255, 10.62993 225.000185, 10.62993 225.000185, 0 235.630115, 0 235.630115, 10.62993 246.260045, 10.62993 246.260045, 0 256.889975, 0 256.889975, 10.62993 267.519905, 10.62993 267.519905, 0 278.149835, 0 278.149835, 10.62993 288.779765, 10.62993 288.779765, 0 299.409695, 0 299.409695, 10.62993 310.039625, 10.62993 310.039625, 0 320.669555, 0 320.669555, 10.62993 337.5002775, 10.62993 337.5002775, 0 354.331, 0 354.331, 16.8307225 343.70107, 16.8307225 343.70107, 33.661445 354.331, 33.661445 354.331, 44.291375 343.70107, 44.291375 343.70107, 54.921305000000004 354.331, 54.921305000000004 354.331, 65.55123499999999 343.70107, 65.55123499999999 343.70107, 76.181165 354.331, 76.181165 354.331, 86.811095 343.70107, 86.811095 343.70107, 97.441025 354.331, 97.441025 354.331, 108.070955 343.70107, 108.070955 343.70107, 118.700885 354.331, 118.700885 354.331, 129.330815 343.70107, 129.330815 343.70107, 139.960745 354.331, 139.960745 354.331, 150.590675 343.70107, 150.590675 343.70107, 161.22060499999998 354.331, 161.22060499999998 354.331, 171.85053499999998 343.70107, 171.85053499999998 343.70107, 182.48046499999998 354.331, 182.48046499999998 354.331, 193.11039499999998 343.70107, 193.11039499999998 343.70107, 203.74032499999998 354.331, 203.74032499999998 354.331, 214.370255 343.70107, 214.370255 343.70107, 225.000185 354.331, 225.000185 354.331, 235.630115 343.70107, 235.630115 343.70107, 246.260045 354.331, 246.260045 354.331, 256.889975 343.70107, 256.889975 343.70107, 267.519905 354.331, 267.519905 354.331, 278.149835 343.70107, 278.149835 343.70107, 288.779765 354.331, 288.779765 354.331, 299.409695 343.70107, 299.409695 343.70107, 310.039625 354.331, 310.039625 354.331, 320.669555 343.70107, 320.669555 343.70107, 337.5002775 354.331, 337.5002775 354.331, 354.331 337.5002775, 354.331 337.5002775, 343.70107 320.669555, 343.70107 320.669555, 354.331 310.039625, 354.331 310.039625, 343.70107 299.409695, 343.70107 299.409695, 354.331 288.779765, 354.331 288.779765, 343.70107 278.149835, 343.70107 278.149835, 354.331 267.519905, 354.331 267.519905, 343.70107 256.889975, 343.70107 256.889975, 354.331 246.260045, 354.331 246.260045, 343.70107 235.630115, 343.70107 235.630115, 354.331 225.000185, 354.331 225.000185, 343.70107 214.370255, 343.70107 214.370255, 354.331 203.74032499999998, 354.331 203.74032499999998, 343.70107 193.11039499999998, 343.70107 193.11039499999998, 354.331 182.48046499999998, 354.331 182.48046499999998, 343.70107 171.85053499999998, 343.70107 171.85053499999998, 354.331 161.22060499999998, 354.331 161.22060499999998, 343.70107 150.590675, 343.70107 150.590675, 354.331 139.960745, 354.331 139.960745, 343.70107 129.330815, 343.70107 129.330815, 354.331 118.700885, 354.331 118.700885, 343.70107 108.070955, 343.70107 108.070955, 354.331 97.441025, 354.331 97.441025, 343.70107 86.811095, 343.70107 86.811095, 354.331 76.181165, 354.331 76.181165, 343.70107 65.55123499999999, 343.70107 65.55123499999999, 354.331 54.921305000000004, 354.331 54.921305000000004, 343.70107 44.291375, 343.70107 44.291375, 354.331 33.661445, 354.331 33.661445, 343.70107 16.8307225, 343.70107 16.8307225, 354.331 0, 354.331 0, 337.5002775 10.62993, 337.5002775 10.62993, 320.669555 0, 320.669555 0, 310.039625 10.62993, 310.039625 10.62993, 299.409695 0, 299.409695 0, 288.779765 10.62993, 288.779765 10.62993, 278.149835 0, 278.149835 0, 267.519905 10.62993, 267.519905 10.62993, 256.889975 0, 256.889975 0, 246.260045 10.62993, 246.260045 10.62993, 235.630115 0, 235.630115 0, 225.000185 10.62993, 225.000185 10.62993, 214.370255 0, 214.370255 0, 203.74032499999998 10.62993, 203.74032499999998 10.62993, 193.11039499999998 0, 193.11039499999998 0, 182.48046499999998 10.62993, 182.48046499999998 10.62993, 171.85053499999998 0, 171.85053499999998 0, 161.22060499999998 10.62993, 161.22060499999998 10.62993, 150.590675 0, 150.590675 0, 139.960745 10.62993, 139.960745 10.62993, 129.330815 0, 129.330815 0, 118.700885 10.62993, 118.700885 10.62993, 108.070955 0, 108.070955 0, 97.441025 10.62993, 97.441025 10.62993, 86.811095 0, 86.811095 0, 76.181165 10.62993, 76.181165 10.62993, 65.55123499999999 0, 65.55123499999999 0, 54.921305000000004 10.62993, 54.921305000000004 10.62993, 44.291375 0, 44.291375 0, 33.661445 10.62993, 33.661445 10.62993, 16.8307225 0, 16.8307225 "/>
</g>
<!-- Left-->
<g transform="translate(731.1620184999999, 22.5000185) ">
<polygon style="stroke:#000000; fill:none; stroke-width:0.90000074" points="10.62993, 0 16.8307225, 0 16.8307225, 10.62993 33.661445, 10.62993 33.661445, 0 44.291375, 0 44.291375, 10.62993 54.921305000000004, 10.62993 54.921305000000004, 0 65.55123499999999, 0 65.55123499999999, 10.62993 76.181165, 10.62993 76.181165, 0 86.811095, 0 86.811095, 10.62993 97.441025, 10.62993 97.441025, 0 108.070955, 0 108.070955, 10.62993 118.700885, 10.62993 118.700885, 0 129.330815, 0 129.330815, 10.62993 139.960745, 10.62993 139.960745, 0 150.590675, 0 150.590675, 10.62993 161.22060499999998, 10.62993 161.22060499999998, 0 171.85053499999998, 0 171.85053499999998, 10.62993 182.48046499999998, 10.62993 182.48046499999998, 0 193.11039499999998, 0 193.11039499999998, 10.62993 203.74032499999998, 10.62993 203.74032499999998, 0 214.370255, 0 214.370255, 10.62993 225.000185, 10.62993 225.000185, 0 235.630115, 0 235.630115, 10.62993 246.260045, 10.62993 246.260045, 0 256.889975, 0 256.889975, 10.62993 267.519905, 10.62993 267.519905, 0 278.149835, 0 278.149835, 10.62993 288.779765, 10.62993 288.779765, 0 299.409695, 0 299.409695, 10.62993 310.039625, 10.62993 310.039625, 0 320.669555, 0 320.669555, 10.62993 337.5002775, 10.62993 337.5002775, 0 343.70107, 0 343.70107, 16.8307225 354.331, 16.8307225 354.331, 33.661445 343.70107, 33.661445 343.70107, 44.291375 354.331, 44.291375 354.331, 54.921305000000004 343.70107, 54.921305000000004 343.70107, 65.55123499999999 354.331, 65.55123499999999 354.331, 76.181165 343.70107, 76.181165 343.70107, 86.811095 354.331, 86.811095 354.331, 97.441025 343.70107, 97.441025 343.70107, 108.070955 354.331, 108.070955 354.331, 118.700885 343.70107, 118.700885 343.70107, 129.330815 354.331, 129.330815 354.331, 139.960745 343.70107, 139.960745 343.70107, 150.590675 354.331, 150.590675 354.331, 161.22060499999998 343.70107, 161.22060499999998 343.70107, 171.85053499999998 354.331, 171.85053499999998 354.331, 182.48046499999998 343.70107, 182.48046499999998 343.70107, 193.11039499999998 354.331, 193.11039499999998 354.331, 203.74032499999998 343.70107, 203.74032499999998 343.70107, 214.370255 354.331, 214.370255 354.331, 225.000185 343.70107, 225.000185 343.70107, 235.630115 354.331, 235.630115 354.331, 246.260045 343.70107, 246.260045 343.70107, 256.889975 354.331, 256.889975 354.331, 267.519905 343.70107, 267.519905 343.70107, 278.149835 354.331, 278.149835 354.331, 288.779765 343.70107, 288.779765 343.70107, 299.409695 354.331, 299.409695 354.331, 310.039625 343.70107, 310.039625 343.70107, 320.669555 354.331, 320.669555 354.331, 337.5002775 343.70107, 337.5002775 343.70107, 354.331 337.5002775, 354.331 337.5002775, 343.70107 320.669555, 343.70107 320.669555, 354.331 310.039625, 354.331 310.039625, 343.70107 299.409695, 343.70107 299.409695, 354.331 288.779765, 354.331 288.779765, 343.70107 278.149835, 343.70107 278.149835, 354.331 267.519905, 354.331 267.519905, 343.70107 256.889975, 343.70107 256.889975, 354.331 246.260045, 354.331 246.260045, 343.70107 235.630115, 343.70107 235.630115, 354.331 225.000185, 354.331 225.000185, 343.70107 214.370255, 343.70107 214.370255, 354.331 203.74032499999998, 354.331 203.74032499999998, 343.70107 193.11039499999998, 343.70107 193.11039499999998, 354.331 182.48046499999998, 354.331 182.48046499999998, 343.70107 171.85053499999998, 343.70107 171.85053499999998, 354.331 161.22060499999998, 354.331 161.22060499999998, 343.70107 150.590675, 343.70107 150.590675, 354.331 139.960745, 354.331 139.960745, 343.70107 129.330815, 343.70107 129.330815, 354.331 118.700885, 354.331 118.700885, 343.70107 108.070955, 343.70107 108.070955, 354.331 97.441025, 354.331 97.441025, 343.70107 86.811095, 343.70107 86.811095, 354.331 76.181165, 354.331 76.181165, 343.70107 65.55123499999999, 343.70107 65.55123499999999, 354.331 54.921305000000004, 354.331 54.921305000000004, 343.70107 44.291375, 343.70107 44.291375, 354.331 33.661445, 354.331 33.661445, 343.70107 16.8307225, 343.70107 16.8307225, 354.331 10.62993, 354.331 10.62993, 337.5002775 0, 337.5002775 0, 320.669555 10.62993, 320.669555 10.62993, 310.039625 0, 310.039625 0, 299.409695 10.62993, 299.409695 10.62993, 288.779765 0, 288.779765 0, 278.149835 10.62993, 278.149835 10.62993, 267.519905 0, 267.519905 0, 256.889975 10.62993, 256.889975 10.62993, 246.260045 0, 246.260045 0, 235.630115 10.62993, 235.630115 10.62993, 225.000185 0, 225.000185 0, 214.370255 10.62993, 214.370255 10.62993, 203.74032499999998 0, 203.74032499999998 0, 193.11039499999998 10.62993, 193.11039499999998 10.62993, 182.48046499999998 0, 182.48046499999998 0, 171.85053499999998 10.62993, 171.85053499999998 10.62993, 161.22060499999998 0, 161.22060499999998 0, 150.590675 10.62993, 150.590675 10.62993, 139.960745 0, 139.960745 0, 129.330815 10.62993, 129.330815 10.62993, 118.700885 0, 118.700885 0, 108.070955 10.62993, 108.070955 10.62993, 97.441025 0, 97.441025 0, 86.811095 10.62993, 86.811095 10.62993, 76.181165 0, 76.181165 0, 65.55123499999999 10.62993, 65.55123499999999 10.62993, 54.921305000000004 0, 54.921305000000004 0, 44.291375 10.62993, 44.291375 10.62993, 33.661445 0, 33.661445 0, 16.8307225 10.62993, 16.8307225 "/>
</g>
<!-- Right-->
<g transform="translate(731.1620184999999, 376.83101849999997) ">
<polygon style="stroke:#000000; fill:none; stroke-width:0.90000074" points="10.62993, 0 16.8307225, 0 16.8307225, 10.62993 33.661445, 10.62993 33.661445, 0 44.291375, 0 44.291375, 10.62993 54.921305000000004, 10.62993 54.921305000000004, 0 65.55123499999999, 0 65.55123499999999, 10.62993 76.181165, 10.62993 76.181165, 0 86.811095, 0 86.811095, 10.62993 97.441025, 10.62993 97.441025, 0 108.070955, 0 108.070955, 10.62993 118.700885, 10.62993 118.700885, 0 129.330815, 0 129.330815, 10.62993 139.960745, 10.62993 139.960745, 0 150.590675, 0 150.590675, 10.62993 161.22060499999998, 10.62993 161.22060499999998, 0 171.85053499999998, 0 171.85053499999998, 10.62993 182.48046499999998, 10.62993 182.48046499999998, 0 193.11039499999998, 0 193.11039499999998, 10.62993 203.74032499999998, 10.62993 203.74032499999998, 0 214.370255, 0 214.370255, 10.62993 225.000185, 10.62993 225.000185, 0 235.630115, 0 235.630115, 10.62993 246.260045, 10.62993 246.260045, 0 256.889975, 0 256.889975, 10.62993 267.519905, 10.62993 267.519905, 0 278.149835, 0 278.149835, 10.62993 288.779765, 10.62993 288.779765, 0 299.409695, 0 299.409695, 10.62993 310.039625, 10.62993 310.039625, 0 320.669555, 0 320.669555, 10.62993 337.5002775, 10.62993 337.5002775, 0 343.70107, 0 343.70107, 16.8307225 354.331, 16.8307225 354.331, 33.661445 343.70107, 33.661445 343.70107, 44.291375 354.331, 44.291375 354.331, 54.921305000000004 343.70107, 54.921305000000004 343.70107, 65.55123499999999 354.331, 65.55123499999999 354.331, 76.181165 343.70107, 76.181165 343.70107, 86.811095 354.331, 86.811095 354.331, 97.441025 343.70107, 97.441025 343.70107, 108.070955 354.331, 108.070955 354.331, 118.700885 343.70107, 118.700885 343.70107, 129.330815 354.331, 129.330815 354.331, 139.960745 343.70107, 139.960745 343.70107, 150.590675 354.331, 150.590675 354.331, 161.22060499999998 343.70107, 161.22060499999998 343.70107, 171.85053499999998 354.331, 171.85053499999998 354.331, 182.48046499999998 343.70107, 182.48046499999998 343.70107, 193.11039499999998 354.331, 193.11039499999998 354.331, 203.74032499999998 343.70107, 203.74032499999998 343.70107, 214.370255 354.331, 214.370255 354.331, 225.000185 343.70107, 225.000185 343.70107, 235.630115 354.331, 235.630115 354.331, 246.260045 343.70107, 246.260045 343.70107, 256.889975 354.331, 256.889975 354.331, 267.519905 343.70107, 267.519905 343.70107, 278.149835 354.331, 278.149835 354.331, 288.779765 343.70107, 288.779765 343.70107, 299.409695 354.331, 299.409695 354.331, 310.039625 343.70107, 310.039625 343.70107, 320.669555 354.331, 320.669555 354.331, 337.5002775 343.70107, 337.5002775 343.70107, 354.331 337.5002775, 354.331 337.5002775, 343.70107 320.669555, 343.70107 320.669555, 354.331 310.039625, 354.331 310.039625, 343.70107 299.409695, 343.70107 299.409695, 354.331 288.779765, 354.331 288.779765, 343.70107 278.149835, 343.70107 278.149835, 354.331 267.519905, 354.331 267.519905, 343.70107 256.889975, 343.70107 256.889975, 354.331 246.260045, 354.331 246.260045, 343.70107 235.630115, 343.70107 235.630115, 354.331 225.000185, 354.331 225.000185, 343.70107 214.370255, 343.70107 214.370255, 354.331 203.74032499999998, 354.331 203.74032499999998, 343.70107 193.11039499999998, 343.70107 193.11039499999998, 354.331 182.48046499999998, 354.331 182.48046499999998, 343.70107 171.85053499999998, 343.70107 171.85053499999998, 354.331 161.22060499999998, 354.331 161.22060499999998, 343.70107 150.590675, 343.70107 150.590675, 354.331 139.960745, 354.331 139.960745, 343.70107 129.330815, 343.70107 129.330815, 354.331 118.700885, 354.331 118.700885, 343.70107 108.070955, 343.70107 108.070955, 354.331 97.441025, 354.331 97.441025, 343.70107 86.811095, 343.70107 86.811095, 354.331 76.181165, 354.331 76.181165, 343.70107 65.55123499999999, 343.70107 65.55123499999999, 354.331 54.921305000000004, 354.331 54.921305000000004, 343.70107 44.291375, 343.70107 44.291375, 354.331 33.661445, 354.331 33.661445, 343.70107 16.8307225, 343.70107 16.8307225, 354.331 10.62993, 354.331 10.62993, 337.5002775 0, 337.5002775 0, 320.669555 10.62993, 320.669555 10.62993, 310.039625 0, 310.039625 0, 299.409695 10.62993, 299.409695 10.62993, 288.779765 0, 288.779765 0, 278.149835 10.62993, 278.149835 10.62993, 267.519905 0, 267.519905 0, 256.889975 10.62993, 256.889975 10.62993, 246.260045 0, 246.260045 0, 235.630115 10.62993, 235.630115 10.62993, 225.000185 0, 225.000185 0, 214.370255 10.62993, 214.370255 10.62993, 203.74032499999998 0, 203.74032499999998 0, 193.11039499999998 10.62993, 193.11039499999998 10.62993, 182.48046499999998 0, 182.48046499999998 0, 171.85053499999998 10.62993, 171.85053499999998 10.62993, 161.22060499999998 0, 161.22060499999998 0, 150.590675 10.62993, 150.590675 10.62993, 139.960745 0, 139.960745 0, 129.330815 10.62993, 129.330815 10.62993, 118.700885 0, 118.700885 0, 108.070955 10.62993, 108.070955 10.62993, 97.441025 0, 97.441025 0, 86.811095 10.62993, 86.811095 10.62993, 76.181165 0, 76.181165 0, 65.55123499999999 10.62993, 65.55123499999999 10.62993, 54.921305000000004 0, 54.921305000000004 0, 44.291375 10.62993, 44.291375 10.62993, 33.661445 0, 33.661445 0, 16.8307225 10.62993, 16.8307225 "/>
</g>
<!-- Top-->
<g transform="translate(22.5000185, 376.83101849999997) ">
<polygon style="stroke:#000000; fill:none; stroke-width:0.90000074" points="10.62993, 10.62993 16.8307225, 10.62993 16.8307225, 0 33.661445, 0 33.661445, 10.62993 44.291375, 10.62993 44.291375, 0 54.921305000000004, 0 54.921305000000004, 10.62993 65.55123499999999, 10.62993 65.55123499999999, 0 76.181165, 0 76.181165, 10.62993 86.811095, 10.62993 86.811095, 0 97.441025, 0 97.441025, 10.62993 108.070955, 10.62993 108.070955, 0 118.700885, 0 118.700885, 10.62993 129.330815, 10.62993 129.330815, 0 139.960745, 0 139.960745, 10.62993 150.590675, 10.62993 150.590675, 0 161.22060499999998, 0 161.22060499999998, 10.62993 171.85053499999998, 10.62993 171.85053499999998, 0 182.48046499999998, 0 182.48046499999998, 10.62993 193.11039499999998, 10.62993 193.11039499999998, 0 203.74032499999998, 0 203.74032499999998, 10.62993 214.370255, 10.62993 214.370255, 0 225.000185, 0 225.000185, 10.62993 235.630115, 10.62993 235.630115, 0 246.260045, 0 246.260045, 10.62993 256.889975, 10.62993 256.889975, 0 267.519905, 0 267.519905, 10.62993 278.149835, 10.62993 278.149835, 0 288.779765, 0 288.779765, 10.62993 299.409695, 10.62993 299.409695, 0 310.039625, 0 310.039625, 10.62993 320.669555, 10.62993 320.669555, 0 337.5002775, 0 337.5002775, 10.62993 343.70107, 10.62993 343.70107, 16.8307225 354.331, 16.8307225 354.331, 33.661445 343.70107, 33.661445 343.70107, 44.291375 354.331, 44.291375 354.331, 54.921305000000004 343.70107, 54.921305000000004 343.70107, 65.55123499999999 354.331, 65.55123499999999 354.331, 76.181165 343.70107, 76.181165 343.70107, 86.811095 354.331, 86.811095 354.331, 97.441025 343.70107, 97.441025 343.70107, 108.070955 354.331, 108.070955 354.331, 118.700885 343.70107, 118.700885 343.70107, 129.330815 354.331, 129.330815 354.331, 139.960745 343.70107, 139.960745 343.70107, 150.590675 354.331, 150.590675 354.331, 161.22060499999998 343.70107, 161.22060499999998 343.70107, 171.85053499999998 354.331, 171.85053499999998 354.331, 182.48046499999998 343.70107, 182.48046499999998 343.70107, 193.11039499999998 354.331, 193.11039499999998 354.331, 203.74032499999998 343.70107, 203.74032499999998 343.70107, 214.370255 354.331, 214.370255 354.331, 225.000185 343.70107, 225.000185 343.70107, 235.630115 354.331, 235.630115 354.331, 246.260045 343.70107, 246.260045 343.70107, 256.889975 354.331, 256.889975 354.331, 267.519905 343.70107, 267.519905 343.70107, 278.149835 354.331, 278.149835 354.331, 288.779765 343.70107, 288.779765 343.70107, 299.409695 354.331, 299.409695 354.331, 310.039625 343.70107, 310.039625 343.70107, 320.669555 354.331, 320.669555 354.331, 337.5002775 343.70107, 337.5002775 343.70107, 343.70107 337.5002775, 343.70107 337.5002775, 354.331 320.669555, 354.331 320.669555, 343.70107 310.039625, 343.70107 310.039625, 354.331 299.409695, 354.331 299.409695, 343.70107 288.779765, 343.70107 288.779765, 354.331 278.149835, 354.331 278.149835, 343.70107 267.519905, 343.70107 267.519905, 354.331 256.889975, 354.331 256.889975, 343.70107 246.260045, 343.70107 246.260045, 354.331 235.630115, 354.331 235.630115, 343.70107 225.000185, 343.70107 225.000185, 354.331 214.370255, 354.331 214.370255, 343.70107 203.74032499999998, 343.70107 203.74032499999998, 354.331 193.11039499999998, 354.331 193.11039499999998, 343.70107 182.48046499999998, 343.70107 182.48046499999998, 354.331 171.85053499999998, 354.331 171.85053499999998, 343.70107 161.22060499999998, 343.70107 161.22060499999998, 354.331 150.590675, 354.331 150.590675, 343.70107 139.960745, 343.70107 139.960745, 354.331 129.330815, 354.331 129.330815, 343.70107 118.700885, 343.70107 118.700885, 354.331 108.070955, 354.331 108.070955, 343.70107 97.441025, 343.70107 97.441025, 354.331 86.811095, 354.331 86.811095, 343.70107 76.181165, 343.70107 76.181165, 354.331 65.55123499999999, 354.331 65.55123499999999, 343.70107 54.921305000000004, 343.70107 54.921305000000004, 354.331 44.291375, 354.331 44.291375, 343.70107 33.661445, 343.70107 33.661445, 354.331 16.8307225, 354.331 16.8307225, 343.70107 10.62993, 343.70107 10.62993, 337.5002775 0, 337.5002775 0, 320.669555 10.62993, 320.669555 10.62993, 310.039625 0, 310.039625 0, 299.409695 10.62993, 299.409695 10.62993, 288.779765 0, 288.779765 0, 278.149835 10.62993, 278.149835 10.62993, 267.519905 0, 267.519905 0, 256.889975 10.62993, 256.889975 10.62993, 246.260045 0, 246.260045 0, 235.630115 10.62993, 235.630115 10.62993, 225.000185 0, 225.000185 0, 214.370255 10.62993, 214.370255 10.62993, 203.74032499999998 0, 203.74032499999998 0, 193.11039499999998 10.62993, 193.11039499999998 10.62993, 182.48046499999998 0, 182.48046499999998 0, 171.85053499999998 10.62993, 171.85053499999998 10.62993, 161.22060499999998 0, 161.22060499999998 0, 150.590675 10.62993, 150.590675 10.62993, 139.960745 0, 139.960745 0, 129.330815 10.62993, 129.330815 10.62993, 118.700885 0, 118.700885 0, 108.070955 10.62993, 108.070955 10.62993, 97.441025 0, 97.441025 0, 86.811095 10.62993, 86.811095 10.62993, 76.181165 0, 76.181165 0, 65.55123499999999 10.62993, 65.55123499999999 10.62993, 54.921305000000004 0, 54.921305000000004 0, 44.291375 10.62993, 44.291375 10.62993, 33.661445 0, 33.661445 0, 16.8307225 10.62993, 16.8307225 "/>
</g>
<!-- Bottom-->
<g transform="translate(376.83101849999997, 376.83101849999997) ">
<polygon style="stroke:#000000; fill:none; stroke-width:0.90000074" points="10.62993, 10.62993 16.8307225, 10.62993 16.8307225, 0 33.661445, 0 33.661445, 10.62993 44.291375, 10.62993 44.291375, 0 54.921305000000004, 0 54.921305000000004, 10.62993 65.55123499999999, 10.62993 65.55123499999999, 0 76.181165, 0 76.181165, 10.62993 86.811095, 10.62993 86.811095, 0 97.441025, 0 97.441025, 10.62993 108.070955, 10.62993 108.070955, 0 118.700885, 0 118.700885, 10.62993 129.330815, 10.62993 129.330815, 0 139.960745, 0 139.960745, 10.62993 150.590675, 10.62993 150.590675, 0 161.22060499999998, 0 161.22060499999998, 10.62993 171.85053499999998, 10.62993 171.85053499999998, 0 182.48046499999998, 0 182.48046499999998, 10.62993 193.11039499999998, 10.62993 193.11039499999998, 0 203.74032499999998, 0 203.74032499999998, 10.62993 214.370255, 10.62993 214.370255, 0 225.000185, 0 225.000185, 10.62993 235.630115, 10.62993 235.630115, 0 246.260045, 0 246.260045, 10.62993 256.889975, 10.62993 256.889975, 0 267.519905, 0 267.519905, 10.62993 278.149835, 10.62993 278.149835, 0 288.779765, 0 288.779765, 10.62993 299.409695, 10.62993 299.409695, 0 310.039625, 0 310.039625, 10.62993 320.669555, 10.62993 320.669555, 0 337.5002775, 0 337.5002775, 10.62993 343.70107, 10.62993 343.70107, 16.8307225 354.331, 16.8307225 354.331, 33.661445 343.70107, 33.661445 343.70107, 44.291375 354.331, 44.291375 354.331, 54.921305000000004 343.70107, 54.921305000000004 343.70107, 65.55123499999999 354.331, 65.55123499999999 354.331, 76.181165 343.70107, 76.181165 343.70107, 86.811095 354.331, 86.811095 354.331, 97.441025 343.70107, 97.441025 343.70107, 108.070955 354.331, 108.070955 354.331, 118.700885 343.70107, 118.700885 343.70107, 129.330815 354.331, 129.330815 354.331, 139.960745 343.70107, 139.960745 343.70107, 150.590675 354.331, 150.590675 354.331, 161.22060499999998 343.70107, 161.22060499999998 343.70107, 171.85053499999998 354.331, 171.85053499999998 354.331, 182.48046499999998 343.70107, 182.48046499999998 343.70107, 193.11039499999998 354.331, 193.11039499999998 354.331, 203.74032499999998 343.70107, 203.74032499999998 343.70107, 214.370255 354.331, 214.370255 354.331, 225.000185 343.70107, 225.000185 343.70107, 235.630115 354.331, 235.630115 354.331, 246.260045 343.70107, 246.260045 343.70107, 256.889975 354.331, 256.889975 354.331, 267.519905 343.70107, 267.519905 343.70107, 278.149835 354.331, 278.149835 354.331, 288.779765 343.70107, 288.779765 343.70107, 299.409695 354.331, 299.409695 354.331, 310.039625 343.70107, 310.039625 343.70107, 320.669555 354.331, 320.669555 354.331, 337.5002775 343.70107, 337.5002775 343.70107, 343.70107 337.5002775, 343.70107 337.5002775, 354.331 320.669555, 354.331 320.669555, 343.70107 310.039625, 343.70107 310.039625, 354.331 299.409695, 354.331 299.409695, 343.70107 288.779765, 343.70107 288.779765, 354.331 278.149835, 354.331 278.149835, 343.70107 267.519905, 343.70107 267.519905, 354.331 256.889975, 354.331 256.889975, 343.70107 246.260045, 343.70107 246.260045, 354.331 235.630115, 354.331 235.630115, 343.70107 225.000185, 343.70107 225.000185, 354.331 214.370255, 354.331 214.370255, 343.70107 203.74032499999998, 343.70107 203.74032499999998, 354.331 193.11039499999998, 354.331 193.11039499999998, 343.70107 182.48046499999998, 343.70107 182.48046499999998, 354.331 171.85053499999998, 354.331 171.85053499999998, 343.70107 161.22060499999998, 343.70107 161.22060499999998, 354.331 150.590675, 354.331 150.590675, 343.70107 139.960745, 343.70107 139.960745, 354.331 129.330815, 354.331 129.330815, 343.70107 118.700885, 343.70107 118.700885, 354.331 108.070955, 354.331 108.070955, 343.70107 97.441025, 343.70107 97.441025, 354.331 86.811095, 354.331 86.811095, 343.70107 76.181165, 343.70107 76.181165, 354.331 65.55123499999999, 354.331 65.55123499999999, 343.70107 54.921305000000004, 343.70107 54.921305000000004, 354.331 44.291375, 354.331 44.291375, 343.70107 33.661445, 343.70107 33.661445, 354.331 16.8307225, 354.331 16.8307225, 343.70107 10.62993, 343.70107 10.62993, 337.5002775 0, 337.5002775 0, 320.669555 10.62993, 320.669555 10.62993, 310.039625 0, 310.039625 0, 299.409695 10.62993, 299.409695 10.62993, 288.779765 0, 288.779765 0, 278.149835 10.62993, 278.149835 10.62993, 267.519905 0, 267.519905 0, 256.889975 10.62993, 256.889975 10.62993, 246.260045 0, 246.260045 0, 235.630115 10.62993, 235.630115 10.62993, 225.000185 0, 225.000185 0, 214.370255 10.62993, 214.370255 10.62993, 203.74032499999998 0, 203.74032499999998 0, 193.11039499999998 10.62993, 193.11039499999998 10.62993, 182.48046499999998 0, 182.48046499999998 0, 171.85053499999998 10.62993, 171.85053499999998 10.62993, 161.22060499999998 0, 161.22060499999998 0, 150.590675 10.62993, 150.590675 10.62993, 139.960745 0, 139.960745 0, 129.330815 10.62993, 129.330815 10.62993, 118.700885 0, 118.700885 0, 108.070955 10.62993, 108.070955 10.62993, 97.441025 0, 97.441025 0, 86.811095 10.62993, 86.811095 10.62993, 76.181165 0, 76.181165 0, 65.55123499999999 10.62993, 65.55123499999999 10.62993, 54.921305000000004 0, 54.921305000000004 0, 44.291375 10.62993, 44.291375 10.62993, 33.661445 0, 33.661445 0, 16.8307225 10.62993, 16.8307225 "/>
</g></svg>